<svg xmlns="http://www.w3.org/2000/svg" xmlns:xlink="http://www.w3.org/1999/xlink" fill="#1F2559" width="24pt" height="24pt" viewBox="0 0 24 24" version="1.1"><g id="surface1"><path d="M 10.570312 0 C 4.742188 0 0 4.742188 0 10.570312 C 0 16.398438 4.742188 21.136719 10.570312 21.136719 C 16.398438 21.136719 21.136719 16.398438 21.136719 10.570312 C 21.136719 4.742188 16.398438 0 10.570312 0 Z M 10.570312 19.1875 C 5.816406 19.1875 1.953125 15.320312 1.953125 10.570312 C 1.953125 5.816406 5.816406 1.953125 10.570312 1.953125 C 15.320312 1.953125 19.1875 5.816406 19.1875 10.570312 C 19.1875 15.320312 15.320312 19.1875 10.570312 19.1875 Z M 10.570312 19.1875 "></path><path d="M 23.714844 22.335938 L 18.121094 16.742188 C 17.738281 16.359375 17.121094 16.359375 16.742188 16.742188 C 16.359375 17.121094 16.359375 17.738281 16.742188 18.121094 L 22.335938 23.714844 C 22.523438 23.90625 22.773438 24 23.023438 24 C 23.273438 24 23.523438 23.90625 23.714844 23.714844 C 24.09375 23.332031 24.09375 22.714844 23.714844 22.335938 Z M 23.714844 22.335938 "></path></g></svg>