<svg width="310" height="198" viewBox="0 0 310 198" fill="none" xmlns="http://www.w3.org/2000/svg">
<g clip-path="url('#clip0')">
<path d="M277.5 0H32.5C14.8269 0 0.5 14.3269 0.5 32V166C0.5 183.673 14.8269 198 32.5 198H277.5C295.173 198 309.5 183.673 309.5 166V32C309.5 14.3269 295.173 0 277.5 0Z" fill="#1B76FF"></path>
<g filter="url('#filter0_d')">
<path d="M204.647 38.1621H98.1474C88.0925 38.1621 79.9414 46.3132 79.9414 56.3681V149.794C79.9414 159.849 88.0925 168 98.1474 168H204.647C214.702 168 222.853 159.849 222.853 149.794V56.3681C222.853 46.3132 214.702 38.1621 204.647 38.1621Z" fill="white" fill-opacity="0.01"></path>
</g>
<path d="M206.419 35.999H96.3712C85.9813 35.999 77.5586 44.4217 77.5586 54.8116V151.35C77.5586 161.74 85.9813 170.163 96.3712 170.163H206.419C216.809 170.163 225.232 161.74 225.232 151.35V54.8116C225.232 44.4217 216.809 35.999 206.419 35.999Z" fill="white"></path>
<g filter="url('#filter1_d')">
<path d="M93.0586 149.267C118.229 149.267 119.527 124.291 138.404 122.507C157.282 120.723 163.575 137.451 183.596 137.451C203.618 137.451 201.874 109.894 214.193 109.894" stroke="#1B76FF" stroke-opacity="0.01" stroke-width="4" stroke-linecap="round"></path>
</g>
<path d="M93.0586 149.268C118.229 149.268 119.527 124.292 138.404 122.508C157.282 120.724 163.575 137.452 183.596 137.452C203.618 137.452 201.874 109.895 214.193 109.895" stroke="#1B76FF" stroke-width="4.80124" stroke-linecap="round"></path>
<g filter="url('#filter2_d')">
<path d="M93.0586 149.267C118.205 149.267 114.487 133.389 139.933 141.328C165.379 149.267 161.904 125.757 176.763 123.379C191.622 121 203.307 125.077 217.023 123.379" stroke="#1B76FF" stroke-opacity="0.01" stroke-width="4" stroke-linecap="round"></path>
</g>
<path d="M93.0586 149.267C118.205 149.267 114.487 133.389 139.933 141.328C165.379 149.267 161.904 125.757 176.763 123.379C191.622 121 203.307 125.077 217.023 123.379" stroke="#1B76FF" stroke-width="4.80124" stroke-linecap="round"></path>
<g filter="url('#filter3_d')">
<path d="M97.4214 87.3613C96.2189 83.282 96.375 78.9224 97.8662 74.9396C99.3575 70.9567 102.103 67.5666 105.689 65.2802C109.275 62.9939 113.507 61.9352 117.747 62.2637C121.987 62.5923 126.006 64.2903 129.197 67.1018" stroke="#782CE4" stroke-opacity="0.01" stroke-width="7" stroke-linecap="round"></path>
</g>
<path d="M97.4214 87.3613C96.2189 83.282 96.375 78.9224 97.8662 74.9396C99.3575 70.9567 102.103 67.5666 105.689 65.2802C109.275 62.9939 113.507 61.9352 117.747 62.2637C121.987 62.5923 126.006 64.2903 129.197 67.1018" stroke="#782CE4" stroke-width="8.04036" stroke-linecap="round"></path>
<g filter="url('#filter4_d')">
<path d="M129.188 67.0938C131.286 68.9395 132.964 71.2122 134.111 73.7595C135.259 76.3069 135.851 79.0702 135.844 81.8642" stroke="#FFCD1D" stroke-opacity="0.01" stroke-width="7" stroke-linecap="round"></path>
</g>
<path d="M129.188 67.0938C131.286 68.9395 132.964 71.2122 134.111 73.7595C135.259 76.3069 135.851 79.0702 135.844 81.8642" stroke="#FFCD1D" stroke-width="8.04036" stroke-linecap="round"></path>
<g filter="url('#filter5_d')">
<path d="M135.844 81.8164C135.844 86.5324 134.144 91.0904 131.057 94.6552C127.97 98.2201 123.701 100.553 119.033 101.226C114.366 101.9 109.612 100.868 105.643 98.3219C101.673 95.7752 98.7549 91.8834 97.4219 87.3598" stroke="#1B76FF" stroke-opacity="0.01" stroke-width="7" stroke-linecap="round"></path>
</g>
<path d="M135.844 81.8164C135.844 86.5324 134.144 91.0904 131.057 94.6552C127.97 98.2201 123.701 100.553 119.033 101.226C114.366 101.9 109.612 100.868 105.643 98.3219C101.673 95.7752 98.7549 91.8834 97.4219 87.3598" stroke="#1B76FF" stroke-width="8.04036" stroke-linecap="round"></path>
<g filter="url('#filter6_d')">
<path d="M158.747 58H155.569C153.874 58 152.5 59.3742 152.5 61.0693V64.2469C152.5 65.942 153.874 67.3162 155.569 67.3162H158.747C160.442 67.3162 161.816 65.942 161.816 64.2469V61.0693C161.816 59.3742 160.442 58 158.747 58Z" fill="#FFCD1D" fill-opacity="0.01"></path>
</g>
<path d="M159.005 56.8945H155.289C153.306 56.8945 151.699 58.5016 151.699 60.484V64.2001C151.699 66.1825 153.306 67.7895 155.289 67.7895H159.005C160.987 67.7895 162.594 66.1825 162.594 64.2001V60.484C162.594 58.5016 160.987 56.8945 159.005 56.8945Z" fill="#FFCD1D"></path>
<g filter="url('#filter7_d')">
<path d="M158.337 76H155.368C153.784 76 152.5 77.284 152.5 78.868V81.837C152.5 83.421 153.784 84.705 155.368 84.705H158.337C159.921 84.705 161.205 83.421 161.205 81.837V78.868C161.205 77.284 159.921 76 158.337 76Z" fill="#782CE4" fill-opacity="0.01"></path>
</g>
<path d="M159.005 74.3262H155.289C153.306 74.3262 151.699 75.9332 151.699 77.9157V81.6317C151.699 83.6141 153.306 85.2212 155.289 85.2212H159.005C160.987 85.2212 162.594 83.6141 162.594 81.6317V77.9157C162.594 75.9332 160.987 74.3262 159.005 74.3262Z" fill="#782CE4"></path>
<g filter="url('#filter8_d')">
<path d="M158.781 93H155.511C153.766 93 152.352 94.4143 152.352 96.159V99.4294C152.352 101.174 153.766 102.588 155.511 102.588H158.781C160.526 102.588 161.94 101.174 161.94 99.4294V96.159C161.94 94.4143 160.526 93 158.781 93Z" fill="#1B76FF" fill-opacity="0.01"></path>
</g>
<path d="M159.005 91.7578H155.289C153.306 91.7578 151.699 93.3649 151.699 95.3473V99.0633C151.699 101.046 153.306 102.653 155.289 102.653H159.005C160.987 102.653 162.594 101.046 162.594 99.0633V95.3473C162.594 93.3649 160.987 91.7578 159.005 91.7578Z" fill="#1B76FF"></path>
<path opacity="0.5" d="M204.13 60.2998H169.402C168.274 60.2998 167.359 61.2144 167.359 62.3426C167.359 63.4708 168.274 64.3854 169.402 64.3854H204.13C205.258 64.3854 206.173 63.4708 206.173 62.3426C206.173 61.2144 205.258 60.2998 204.13 60.2998Z" fill="#BEBFCC"></path>
<path opacity="0.5" d="M195.018 77.7314H169.402C168.274 77.7314 167.359 78.646 167.359 79.7743C167.359 80.9025 168.274 81.8171 169.402 81.8171H195.018C196.146 81.8171 197.06 80.9025 197.06 79.7743C197.06 78.646 196.146 77.7314 195.018 77.7314Z" fill="#BEBFCC"></path>
<path opacity="0.5" d="M200.835 95.1631H169.402C168.274 95.1631 167.359 96.0777 167.359 97.2059C167.359 98.3341 168.274 99.2487 169.402 99.2487H200.835C201.963 99.2487 202.877 98.3341 202.877 97.2059C202.877 96.0777 201.963 95.1631 200.835 95.1631Z" fill="#BEBFCC"></path>
<g filter="url('#filter9_d')">
<path d="M239.735 24.667H202.729C196.232 24.667 190.965 29.9341 190.965 36.4315V71.1648C190.965 77.6621 196.232 82.9293 202.729 82.9293H239.735C246.232 82.9293 251.499 77.6621 251.499 71.1648V36.4315C251.499 29.9341 246.232 24.667 239.735 24.667Z" fill="white" fill-opacity="0.01"></path>
</g>
<path d="M241.534 21.8379H200.934C193.806 21.8379 188.027 27.6166 188.027 34.745V72.8518C188.027 79.9802 193.806 85.7589 200.934 85.7589H241.534C248.662 85.7589 254.441 79.9802 254.441 72.8518V34.745C254.441 27.6166 248.662 21.8379 241.534 21.8379Z" fill="white"></path>
<g filter="url('#filter10_d')">
<path d="M203.502 64.5655C203.502 63.3643 202.636 62.3906 201.567 62.3906C200.499 62.3906 199.633 63.3643 199.633 64.5655V71.8249C199.633 73.026 200.499 73.9997 201.567 73.9997C202.636 73.9997 203.502 73.026 203.502 71.8249V64.5655Z" fill="#1B76FF" fill-opacity="0.01"></path>
</g>
<path d="M204.022 64.0923C204.022 62.7345 202.922 61.6338 201.564 61.6338C200.206 61.6338 199.105 62.7345 199.105 64.0923V72.2986C199.105 73.6564 200.206 74.7571 201.564 74.7571C202.922 74.7571 204.022 73.6564 204.022 72.2986V64.0923Z" fill="#1B76FF"></path>
<g filter="url('#filter11_d')">
<path d="M213.502 57.5422C213.502 56.286 212.561 55.2676 211.401 55.2676C210.241 55.2676 209.301 56.286 209.301 57.5422V71.7252C209.301 72.9815 210.241 73.9999 211.401 73.9999C212.561 73.9999 213.502 72.9815 213.502 71.7252V57.5422Z" fill="#1B76FF" fill-opacity="0.01"></path>
</g>
<path d="M213.858 56.9692C213.858 55.6115 212.758 54.5107 211.4 54.5107C210.042 54.5107 208.941 55.6115 208.941 56.9692V72.2984C208.941 73.6562 210.042 74.7569 211.4 74.7569C212.758 74.7569 213.858 73.6562 213.858 72.2984V56.9692Z" fill="#1B76FF"></path>
<g filter="url('#filter12_d')">
<path d="M222.502 50.2814C222.502 48.9982 221.935 47.958 221.235 47.958C220.536 47.958 219.969 48.9982 219.969 50.2814V71.6763C219.969 72.9595 220.536 73.9998 221.235 73.9998C221.935 73.9998 222.502 72.9595 222.502 71.6763V50.2814Z" fill="#1B76FF" fill-opacity="0.01"></path>
</g>
<path d="M223.69 49.6597C223.69 48.3019 222.59 47.2012 221.232 47.2012C219.874 47.2012 218.773 48.3019 218.773 49.6597V72.2986C218.773 73.6564 219.874 74.7571 221.232 74.7571C222.59 74.7571 223.69 73.6564 223.69 72.2986V49.6597Z" fill="#1B76FF"></path>
<g filter="url('#filter13_d')">
<path d="M232.502 43.1666C232.502 41.8681 231.86 40.8154 231.069 40.8154C230.278 40.8154 229.637 41.8681 229.637 43.1666V71.6491C229.637 72.9476 230.278 74.0003 231.069 74.0003C231.86 74.0003 232.502 72.9476 232.502 71.6491V43.1666Z" fill="#1B76FF" fill-opacity="0.01"></path>
</g>
<path d="M233.526 42.5161C233.526 41.1583 232.426 40.0576 231.068 40.0576C229.71 40.0576 228.609 41.1583 228.609 42.5161V72.2983C228.609 73.6561 229.71 74.7568 231.068 74.7568C232.426 74.7568 233.526 73.6561 233.526 72.2983V42.5161Z" fill="#1B76FF"></path>
<g filter="url('#filter14_d')">
<path d="M242.502 35.7998C242.502 34.4908 241.786 33.4297 240.903 33.4297C240.02 33.4297 239.305 34.4908 239.305 35.7998V71.6296C239.305 72.9386 240.02 73.9997 240.903 73.9997C241.786 73.9997 242.502 72.9386 242.502 71.6296V35.7998Z" fill="#1B76FF" fill-opacity="0.01"></path>
</g>
<path d="M243.358 35.1314C243.358 33.7736 242.258 32.6729 240.9 32.6729C239.542 32.6729 238.441 33.7736 238.441 35.1314V72.2982C238.441 73.6559 239.542 74.7566 240.9 74.7566C242.258 74.7566 243.358 73.6559 243.358 72.2982V35.1314Z" fill="#1B76FF"></path>
</g>
<defs>
<filter id="filter0_d" x="54.9414" y="15.1621" width="192.912" height="179.838" filterUnits="userSpaceOnUse" color-interpolation-filters="sRGB">
<feFlood flood-opacity="0" result="BackgroundImageFix"></feFlood>
<feColorMatrix in="SourceAlpha" type="matrix" values="0 0 0 0 0 0 0 0 0 0 0 0 0 0 0 0 0 0 127 0"></feColorMatrix>
<feOffset dy="2"></feOffset>
<feGaussianBlur stdDeviation="12.5"></feGaussianBlur>
<feColorMatrix type="matrix" values="0 0 0 0 0.121569 0 0 0 0 0.184314 0 0 0 0 0.34902 0 0 0 0.23 0"></feColorMatrix>
<feBlend mode="normal" in2="BackgroundImageFix" result="effect1_dropShadow"></feBlend>
<feBlend mode="normal" in="SourceGraphic" in2="effect1_dropShadow" result="shape"></feBlend>
</filter>
<filter id="filter1_d" x="87.9274" y="106.641" width="131.397" height="49.6353" filterUnits="userSpaceOnUse" color-interpolation-filters="sRGB">
<feFlood flood-opacity="0" result="BackgroundImageFix"></feFlood>
<feColorMatrix in="SourceAlpha" type="matrix" values="0 0 0 0 0 0 0 0 0 0 0 0 0 0 0 0 0 0 127 0"></feColorMatrix>
<feOffset dy="1.87869"></feOffset>
<feGaussianBlur stdDeviation="1.56558"></feGaussianBlur>
<feColorMatrix type="matrix" values="0 0 0 0 0.104167 0 0 0 0 0.4625 0 0 0 0 1 0 0 0 0.21 0"></feColorMatrix>
<feBlend mode="normal" in2="BackgroundImageFix" result="effect1_dropShadow"></feBlend>
<feBlend mode="normal" in="SourceGraphic" in2="effect1_dropShadow" result="shape"></feBlend>
</filter>
<filter id="filter2_d" x="87.9274" y="118.734" width="134.227" height="36.9167" filterUnits="userSpaceOnUse" color-interpolation-filters="sRGB">
<feFlood flood-opacity="0" result="BackgroundImageFix"></feFlood>
<feColorMatrix in="SourceAlpha" type="matrix" values="0 0 0 0 0 0 0 0 0 0 0 0 0 0 0 0 0 0 127 0"></feColorMatrix>
<feOffset dy="1.25246"></feOffset>
<feGaussianBlur stdDeviation="1.56558"></feGaussianBlur>
<feColorMatrix type="matrix" values="0 0 0 0 0.104167 0 0 0 0 0.4625 0 0 0 0 1 0 0 0 0.24 0"></feColorMatrix>
<feBlend mode="normal" in2="BackgroundImageFix" result="effect1_dropShadow"></feBlend>
<feBlend mode="normal" in="SourceGraphic" in2="effect1_dropShadow" result="shape"></feBlend>
</filter>
<filter id="filter3_d" x="90.8239" y="58.7051" width="44.1704" height="36.7516" filterUnits="userSpaceOnUse" color-interpolation-filters="sRGB">
<feFlood flood-opacity="0" result="BackgroundImageFix"></feFlood>
<feColorMatrix in="SourceAlpha" type="matrix" values="0 0 0 0 0 0 0 0 0 0 0 0 0 0 0 0 0 0 127 0"></feColorMatrix>
<feOffset dy="2.29724"></feOffset>
<feGaussianBlur stdDeviation="1.14862"></feGaussianBlur>
<feColorMatrix type="matrix" values="0 0 0 0 0.470588 0 0 0 0 0.172549 0 0 0 0 0.894118 0 0 0 0.24 0"></feColorMatrix>
<feBlend mode="normal" in2="BackgroundImageFix" result="effect1_dropShadow"></feBlend>
<feBlend mode="normal" in="SourceGraphic" in2="effect1_dropShadow" result="shape"></feBlend>
</filter>
<filter id="filter4_d" x="121.667" y="60.7222" width="21.6965" height="29.8108" filterUnits="userSpaceOnUse" color-interpolation-filters="sRGB">
<feFlood flood-opacity="0" result="BackgroundImageFix"></feFlood>
<feColorMatrix in="SourceAlpha" type="matrix" values="0 0 0 0 0 0 0 0 0 0 0 0 0 0 0 0 0 0 127 0"></feColorMatrix>
<feOffset dy="1.14862"></feOffset>
<feGaussianBlur stdDeviation="2.01009"></feGaussianBlur>
<feColorMatrix type="matrix" values="0 0 0 0 1 0 0 0 0 0.80475 0 0 0 0 0.1125 0 0 0 0.15 0"></feColorMatrix>
<feBlend mode="normal" in2="BackgroundImageFix" result="effect1_dropShadow"></feBlend>
<feBlend mode="normal" in="SourceGraphic" in2="effect1_dropShadow" result="shape"></feBlend>
</filter>
<filter id="filter5_d" x="91.6246" y="77.7421" width="50.0175" height="31.2055" filterUnits="userSpaceOnUse" color-interpolation-filters="sRGB">
<feFlood flood-opacity="0" result="BackgroundImageFix"></feFlood>
<feColorMatrix in="SourceAlpha" type="matrix" values="0 0 0 0 0 0 0 0 0 0 0 0 0 0 0 0 0 0 127 0"></feColorMatrix>
<feOffset dy="1.72293"></feOffset>
<feGaussianBlur stdDeviation="1.14862"></feGaussianBlur>
<feColorMatrix type="matrix" values="0 0 0 0 0.104167 0 0 0 0 0.4625 0 0 0 0 1 0 0 0 0.22 0"></feColorMatrix>
<feBlend mode="normal" in2="BackgroundImageFix" result="effect1_dropShadow"></feBlend>
<feBlend mode="normal" in="SourceGraphic" in2="effect1_dropShadow" result="shape"></feBlend>
</filter>
<filter id="filter6_d" x="149.628" y="57.1284" width="15.0594" height="15.0593" filterUnits="userSpaceOnUse" color-interpolation-filters="sRGB">
<feFlood flood-opacity="0" result="BackgroundImageFix"></feFlood>
<feColorMatrix in="SourceAlpha" type="matrix" values="0 0 0 0 0 0 0 0 0 0 0 0 0 0 0 0 0 0 127 0"></feColorMatrix>
<feOffset dy="2"></feOffset>
<feGaussianBlur stdDeviation="1.43579"></feGaussianBlur>
<feColorMatrix type="matrix" values="0 0 0 0 1 0 0 0 0 0.80475 0 0 0 0 0.1125 0 0 0 0.24 0"></feColorMatrix>
<feBlend mode="normal" in2="BackgroundImageFix" result="effect1_dropShadow"></feBlend>
<feBlend mode="normal" in="SourceGraphic" in2="effect1_dropShadow" result="shape"></feBlend>
</filter>
<filter id="filter7_d" x="149.628" y="75.2821" width="14.4482" height="14.4482" filterUnits="userSpaceOnUse" color-interpolation-filters="sRGB">
<feFlood flood-opacity="0" result="BackgroundImageFix"></feFlood>
<feColorMatrix in="SourceAlpha" type="matrix" values="0 0 0 0 0 0 0 0 0 0 0 0 0 0 0 0 0 0 127 0"></feColorMatrix>
<feOffset dy="2.15369"></feOffset>
<feGaussianBlur stdDeviation="1.43579"></feGaussianBlur>
<feColorMatrix type="matrix" values="0 0 0 0 0.470588 0 0 0 0 0.172549 0 0 0 0 0.894118 0 0 0 0.26 0"></feColorMatrix>
<feBlend mode="normal" in2="BackgroundImageFix" result="effect1_dropShadow"></feBlend>
<feBlend mode="normal" in="SourceGraphic" in2="effect1_dropShadow" result="shape"></feBlend>
</filter>
<filter id="filter8_d" x="149.48" y="92.2821" width="15.3316" height="15.3316" filterUnits="userSpaceOnUse" color-interpolation-filters="sRGB">
<feFlood flood-opacity="0" result="BackgroundImageFix"></feFlood>
<feColorMatrix in="SourceAlpha" type="matrix" values="0 0 0 0 0 0 0 0 0 0 0 0 0 0 0 0 0 0 127 0"></feColorMatrix>
<feOffset dy="2.15369"></feOffset>
<feGaussianBlur stdDeviation="1.43579"></feGaussianBlur>
<feColorMatrix type="matrix" values="0 0 0 0 0.104167 0 0 0 0 0.4625 0 0 0 0 1 0 0 0 0.18 0"></feColorMatrix>
<feBlend mode="normal" in2="BackgroundImageFix" result="effect1_dropShadow"></feBlend>
<feBlend mode="normal" in="SourceGraphic" in2="effect1_dropShadow" result="shape"></feBlend>
</filter>
<filter id="filter9_d" x="170.965" y="7.66699" width="100.534" height="98.2623" filterUnits="userSpaceOnUse" color-interpolation-filters="sRGB">
<feFlood flood-opacity="0" result="BackgroundImageFix"></feFlood>
<feColorMatrix in="SourceAlpha" type="matrix" values="0 0 0 0 0 0 0 0 0 0 0 0 0 0 0 0 0 0 127 0"></feColorMatrix>
<feOffset dy="3"></feOffset>
<feGaussianBlur stdDeviation="10"></feGaussianBlur>
<feColorMatrix type="matrix" values="0 0 0 0 0.121042 0 0 0 0 0.143938 0 0 0 0 0.35 0 0 0 0.18 0"></feColorMatrix>
<feBlend mode="normal" in2="BackgroundImageFix" result="effect1_dropShadow"></feBlend>
<feBlend mode="normal" in="SourceGraphic" in2="effect1_dropShadow" result="shape"></feBlend>
</filter>
<filter id="filter10_d" x="197.174" y="62.3906" width="8.786" height="17.0676" filterUnits="userSpaceOnUse" color-interpolation-filters="sRGB">
<feFlood flood-opacity="0" result="BackgroundImageFix"></feFlood>
<feColorMatrix in="SourceAlpha" type="matrix" values="0 0 0 0 0 0 0 0 0 0 0 0 0 0 0 0 0 0 127 0"></feColorMatrix>
<feOffset dy="3"></feOffset>
<feGaussianBlur stdDeviation="1.22925"></feGaussianBlur>
<feColorMatrix type="matrix" values="0 0 0 0 0.104167 0 0 0 0 0.4625 0 0 0 0 1 0 0 0 0.15 0"></feColorMatrix>
<feBlend mode="normal" in2="BackgroundImageFix" result="effect1_dropShadow"></feBlend>
<feBlend mode="normal" in="SourceGraphic" in2="effect1_dropShadow" result="shape"></feBlend>
</filter>
<filter id="filter11_d" x="206.842" y="55.2676" width="9.118" height="24.1908" filterUnits="userSpaceOnUse" color-interpolation-filters="sRGB">
<feFlood flood-opacity="0" result="BackgroundImageFix"></feFlood>
<feColorMatrix in="SourceAlpha" type="matrix" values="0 0 0 0 0 0 0 0 0 0 0 0 0 0 0 0 0 0 127 0"></feColorMatrix>
<feOffset dy="3"></feOffset>
<feGaussianBlur stdDeviation="1.22925"></feGaussianBlur>
<feColorMatrix type="matrix" values="0 0 0 0 0.104167 0 0 0 0 0.4625 0 0 0 0 1 0 0 0 0.24 0"></feColorMatrix>
<feBlend mode="normal" in2="BackgroundImageFix" result="effect1_dropShadow"></feBlend>
<feBlend mode="normal" in="SourceGraphic" in2="effect1_dropShadow" result="shape"></feBlend>
</filter>
<filter id="filter12_d" x="217.51" y="47.958" width="7.45" height="31.5003" filterUnits="userSpaceOnUse" color-interpolation-filters="sRGB">
<feFlood flood-opacity="0" result="BackgroundImageFix"></feFlood>
<feColorMatrix in="SourceAlpha" type="matrix" values="0 0 0 0 0 0 0 0 0 0 0 0 0 0 0 0 0 0 127 0"></feColorMatrix>
<feOffset dy="3"></feOffset>
<feGaussianBlur stdDeviation="1.22925"></feGaussianBlur>
<feColorMatrix type="matrix" values="0 0 0 0 0.104167 0 0 0 0 0.4625 0 0 0 0 1 0 0 0 0.15 0"></feColorMatrix>
<feBlend mode="normal" in2="BackgroundImageFix" result="effect1_dropShadow"></feBlend>
<feBlend mode="normal" in="SourceGraphic" in2="effect1_dropShadow" result="shape"></feBlend>
</filter>
<filter id="filter13_d" x="227.178" y="40.8154" width="7.78201" height="38.6433" filterUnits="userSpaceOnUse" color-interpolation-filters="sRGB">
<feFlood flood-opacity="0" result="BackgroundImageFix"></feFlood>
<feColorMatrix in="SourceAlpha" type="matrix" values="0 0 0 0 0 0 0 0 0 0 0 0 0 0 0 0 0 0 127 0"></feColorMatrix>
<feOffset dy="3"></feOffset>
<feGaussianBlur stdDeviation="1.22925"></feGaussianBlur>
<feColorMatrix type="matrix" values="0 0 0 0 0.104167 0 0 0 0 0.4625 0 0 0 0 1 0 0 0 0.24 0"></feColorMatrix>
<feBlend mode="normal" in2="BackgroundImageFix" result="effect1_dropShadow"></feBlend>
<feBlend mode="normal" in="SourceGraphic" in2="effect1_dropShadow" result="shape"></feBlend>
</filter>
<filter id="filter14_d" x="236.846" y="32.9712" width="8.11401" height="45.487" filterUnits="userSpaceOnUse" color-interpolation-filters="sRGB">
<feFlood flood-opacity="0" result="BackgroundImageFix"></feFlood>
<feColorMatrix in="SourceAlpha" type="matrix" values="0 0 0 0 0 0 0 0 0 0 0 0 0 0 0 0 0 0 127 0"></feColorMatrix>
<feOffset dy="2"></feOffset>
<feGaussianBlur stdDeviation="1.22925"></feGaussianBlur>
<feColorMatrix type="matrix" values="0 0 0 0 0.104167 0 0 0 0 0.4625 0 0 0 0 1 0 0 0 0.15 0"></feColorMatrix>
<feBlend mode="normal" in2="BackgroundImageFix" result="effect1_dropShadow"></feBlend>
<feBlend mode="normal" in="SourceGraphic" in2="effect1_dropShadow" result="shape"></feBlend>
</filter>
<clipPath id="clip0">
<rect width="309" height="198" fill="white" transform="translate(0.5)"></rect>
</clipPath>
</defs>
</svg>
