<svg width="310" height="198" viewBox="0 0 310 198" fill="none" xmlns="http://www.w3.org/2000/svg">
<g clip-path="url('#clip0')">
<path d="M277.5 0H32.5C14.8269 0 0.5 14.3269 0.5 32V166C0.5 183.673 14.8269 198 32.5 198H277.5C295.173 198 309.5 183.673 309.5 166V32C309.5 14.3269 295.173 0 277.5 0Z" fill="#FFCD1D"></path>
<g filter="url('#filter0_d')">
<path d="M227.254 27.6992H143.409C134.989 27.6992 128.164 34.5244 128.164 42.9437V155.057C128.164 163.476 134.989 170.301 143.409 170.301H227.254C235.673 170.301 242.498 163.476 242.498 155.057V42.9437C242.498 34.5244 235.673 27.6992 227.254 27.6992Z" fill="white" fill-opacity="0.01"></path>
</g>
<path d="M229.137 24.5H141.53C132.733 24.5 125.602 31.6314 125.602 40.4285V157.572C125.602 166.369 132.733 173.5 141.53 173.5H229.137C237.934 173.5 245.066 166.369 245.066 157.572V40.4285C245.066 31.6314 237.934 24.5 229.137 24.5Z" fill="white"></path>
<g filter="url('#filter1_d')">
<path d="M138.727 47.4999C138.727 44.6307 141.052 42.3047 143.922 42.3047H149.304C152.173 42.3047 154.499 44.6307 154.499 47.4999V52.8817C154.499 55.7509 152.173 58.0769 149.304 58.0769H143.922C141.052 58.0769 138.727 55.7509 138.727 52.8817V47.4999Z" fill="#FFCD1D" fill-opacity="0.01"></path>
</g>
<path d="M137.547 47.0972C137.547 43.7983 140.221 41.124 143.52 41.124H149.708C153.007 41.124 155.681 43.7983 155.681 47.0972V53.285C155.681 56.5839 153.007 59.2582 149.708 59.2582H143.52C140.221 59.2582 137.547 56.5839 137.547 53.285V47.0972Z" fill="#FFCD1D"></path>
<path d="M150.896 45.6035L145.149 53.8133C145.073 53.9223 144.973 54.0117 144.855 54.0741C144.738 54.1365 144.608 54.1702 144.475 54.1724C144.343 54.1746 144.211 54.1452 144.092 54.0867C143.973 54.0282 143.869 53.9422 143.79 53.8358L142.328 51.8868" stroke="white" stroke-width="1.99106" stroke-linecap="round" stroke-linejoin="round"></path>
<g filter="url('#filter2_d')">
<path d="M138.727 72.6024C138.727 69.7332 141.052 67.4072 143.922 67.4072H149.304C152.173 67.4072 154.499 69.7332 154.499 72.6024V77.9842C154.499 80.8534 152.173 83.1793 149.304 83.1793H143.922C141.052 83.1793 138.727 80.8534 138.727 77.9842V72.6024Z" fill="#FFCD1D" fill-opacity="0.01"></path>
</g>
<path d="M137.547 72.1998C137.547 68.9009 140.221 66.2266 143.52 66.2266H149.708C153.007 66.2266 155.681 68.9009 155.681 72.1998V78.3876C155.681 81.6865 153.007 84.3607 149.708 84.3607H143.52C140.221 84.3607 137.547 81.6865 137.547 78.3876V72.1998Z" fill="#FFCD1D"></path>
<g filter="url('#filter3_d')">
<path d="M138.727 96.7089C138.727 93.8397 141.052 91.5137 143.922 91.5137H149.304C152.173 91.5137 154.499 93.8397 154.499 96.7089V102.09C154.499 104.96 152.173 107.286 149.304 107.286H143.922C141.052 107.286 138.727 104.96 138.727 102.09V96.7089Z" fill="#FFCD1D" fill-opacity="0.01"></path>
</g>
<path d="M137.547 96.3062C137.547 93.0073 140.221 90.333 143.52 90.333H149.708C153.007 90.333 155.681 93.0073 155.681 96.3062V102.494C155.681 105.793 153.007 108.467 149.708 108.467H143.52C140.221 108.467 137.547 105.793 137.547 102.494V96.3062Z" fill="#FFCD1D"></path>
<path d="M143.521 115.632H149.709C152.458 115.632 154.686 117.86 154.686 120.609V126.797C154.686 129.546 152.458 131.775 149.709 131.775H143.521C140.772 131.775 138.543 129.546 138.543 126.797V120.609C138.543 117.86 140.772 115.632 143.521 115.632Z" stroke="#BEBFCC" stroke-width="1.99106"></path>
<path d="M143.521 139.739H149.709C152.458 139.739 154.686 141.967 154.686 144.716V150.904C154.686 153.653 152.458 155.882 149.709 155.882H143.521C140.772 155.882 138.543 153.653 138.543 150.904V144.716C138.543 141.967 140.772 139.739 143.521 139.739Z" stroke="#BEBFCC" stroke-width="1.99106"></path>
<path opacity="0.5" d="M188.325 46.209H165.634C163.435 46.209 161.652 47.9918 161.652 50.1911C161.652 52.3904 163.435 54.1732 165.634 54.1732H188.325C190.524 54.1732 192.307 52.3904 192.307 50.1911C192.307 47.9918 190.524 46.209 188.325 46.209Z" fill="#BEBFCC"></path>
<path opacity="0.5" d="M227.358 71.3115H166.029C163.83 71.3115 162.047 73.0944 162.047 75.2936C162.047 77.4929 163.83 79.2758 166.029 79.2758H227.358C229.558 79.2758 231.34 77.4929 231.34 75.2936C231.34 73.0944 229.558 71.3115 227.358 71.3115Z" fill="#BEBFCC"></path>
<path opacity="0.5" d="M202.469 96.8721H165.634C163.435 96.8721 161.652 98.6549 161.652 100.854C161.652 103.053 163.435 104.836 165.634 104.836H202.469C204.668 104.836 206.451 103.053 206.451 100.854C206.451 98.6549 204.668 96.8721 202.469 96.8721Z" fill="#BEBFCC"></path>
<path opacity="0.5" d="M215.183 119.721H165.634C163.435 119.721 161.652 121.504 161.652 123.703C161.652 125.902 163.435 127.685 165.634 127.685H215.183C217.382 127.685 219.165 125.902 219.165 123.703C219.165 121.504 217.382 119.721 215.183 119.721Z" fill="#BEBFCC"></path>
<path opacity="0.5" d="M227.357 143.828H165.634C163.435 143.828 161.652 145.611 161.652 147.81C161.652 150.01 163.435 151.792 165.634 151.792H227.357C229.557 151.792 231.339 150.01 231.339 147.81C231.339 145.611 229.557 143.828 227.357 143.828Z" fill="#BEBFCC"></path>
<path d="M150.896 71.0088L145.149 79.2186C145.073 79.3275 144.973 79.4169 144.855 79.4794C144.738 79.5418 144.608 79.5755 144.475 79.5777C144.343 79.5799 144.211 79.5505 144.092 79.492C143.973 79.4334 143.869 79.3474 143.79 79.241L142.328 77.2921" stroke="white" stroke-width="1.99106" stroke-linecap="round" stroke-linejoin="round"></path>
<path d="M150.896 95.1162L145.149 103.326C145.073 103.435 144.973 103.524 144.855 103.587C144.738 103.649 144.608 103.683 144.475 103.685C144.343 103.687 144.211 103.658 144.092 103.599C143.973 103.541 143.869 103.455 143.79 103.349L142.328 101.4" stroke="white" stroke-width="1.99106" stroke-linecap="round" stroke-linejoin="round"></path>
<g filter="url('#filter4_d')">
<path d="M119.332 62.1074H85.3814C74.7205 62.1074 66.0781 70.7498 66.0781 81.4107V114.697C66.0781 125.357 74.7205 134 85.3814 134H119.332C129.993 134 138.635 125.357 138.635 114.697V81.4107C138.635 70.7498 129.993 62.1074 119.332 62.1074Z" fill="white" fill-opacity="0.01"></path>
</g>
<path d="M119.867 60.9766H84.8481C73.8518 60.9766 64.9375 69.8908 64.9375 80.8872V115.22C64.9375 126.216 73.8518 135.131 84.8481 135.131H119.867C130.863 135.131 139.777 126.216 139.777 115.22V80.8872C139.777 69.8908 130.863 60.9766 119.867 60.9766Z" fill="white"></path>
<g filter="url('#filter5_d')">
<path d="M105.626 117.177H99.0867C98.938 117.177 98.7918 117.215 98.662 117.288C98.5321 117.36 98.423 117.464 98.3448 117.591C98.2667 117.717 98.2223 117.862 98.2157 118.01C98.2091 118.159 98.2406 118.307 98.3073 118.44L98.8931 119.61C99.1808 120.189 99.6249 120.677 100.175 121.018C100.726 121.358 101.36 121.538 102.008 121.536H102.705C103.352 121.539 103.986 121.361 104.536 121.022C105.087 120.683 105.532 120.196 105.821 119.618L106.407 118.448C106.474 118.315 106.505 118.167 106.498 118.019C106.492 117.87 106.447 117.726 106.369 117.599C106.291 117.472 106.181 117.368 106.051 117.296C105.921 117.224 105.775 117.185 105.626 117.186V117.177Z" fill="#FFCD1D" fill-opacity="0.01"></path>
</g>
<path d="M106.341 116.7H98.3711C98.1899 116.7 98.0117 116.747 97.8535 116.835C97.6952 116.923 97.5622 117.05 97.467 117.205C97.3718 117.359 97.3176 117.535 97.3096 117.716C97.3016 117.897 97.34 118.077 97.4212 118.239L98.1352 119.665C98.4858 120.371 99.0271 120.966 99.6978 121.381C100.369 121.796 101.142 122.015 101.931 122.013H102.781C103.569 122.016 104.342 121.799 105.013 121.386C105.684 120.973 106.226 120.38 106.579 119.675L107.293 118.249C107.374 118.087 107.412 117.907 107.404 117.726C107.396 117.545 107.342 117.369 107.246 117.214C107.151 117.06 107.017 116.933 106.859 116.845C106.7 116.757 106.522 116.71 106.341 116.711V116.7Z" fill="#FFCD1D"></path>
<g filter="url('#filter6_d')">
<path d="M102.356 80.0002C102.851 80.0002 103.328 79.8031 103.678 79.4522C104.029 79.1013 104.226 78.6255 104.226 78.1292V73.452C104.226 72.9557 104.029 72.4799 103.678 72.129C103.328 71.7782 102.851 71.5811 102.356 71.5811C101.859 71.5811 101.383 71.7782 101.032 72.129C100.681 72.4799 100.484 72.9557 100.484 73.452V78.1292C100.484 78.6255 100.681 79.1013 101.032 79.4522C101.383 79.8031 101.859 80.0002 102.356 80.0002Z" fill="#FFCD1D" fill-opacity="0.01"></path>
</g>
<path d="M102.356 80.5721C102.919 80.5721 103.46 80.3482 103.858 79.9497C104.257 79.5511 104.481 79.0106 104.481 78.4469V73.134C104.481 72.5703 104.257 72.0298 103.858 71.6312C103.46 71.2327 102.919 71.0088 102.356 71.0088C101.792 71.0088 101.251 71.2327 100.853 71.6312C100.454 72.0298 100.23 72.5703 100.23 73.134V78.4469C100.23 79.0106 100.454 79.5511 100.853 79.9497C101.251 80.3482 101.792 80.5721 102.356 80.5721Z" fill="#FFCD1D"></path>
<g filter="url('#filter7_d')">
<path d="M121.459 79.534C121.112 79.1865 120.64 78.9912 120.149 78.9912C119.657 78.9912 119.186 79.1865 118.838 79.534L115.562 82.8121C115.384 82.9831 115.243 83.1877 115.146 83.4139C115.049 83.6402 114.998 83.8834 114.996 84.1296C114.994 84.3758 115.041 84.6199 115.134 84.8478C115.227 85.0757 115.364 85.2827 115.539 85.4568C115.712 85.6308 115.92 85.7686 116.148 85.8617C116.376 85.955 116.62 86.0019 116.866 85.9998C117.112 85.9976 117.355 85.9464 117.581 85.8493C117.808 85.7521 118.012 85.6108 118.183 85.4338L121.459 82.1557C121.807 81.8081 122.003 81.3366 122.003 80.8449C122.003 80.3533 121.807 79.8818 121.459 79.534Z" fill="#FFCD1D" fill-opacity="0.01"></path>
</g>
<path d="M121.892 79.1007C121.494 78.7023 120.953 78.4785 120.39 78.4785C119.826 78.4785 119.286 78.7023 118.887 79.1007L115.132 82.8581C114.929 83.0541 114.767 83.2886 114.656 83.5479C114.545 83.8072 114.486 84.086 114.484 84.3682C114.481 84.6504 114.535 84.9302 114.642 85.1914C114.749 85.4526 114.906 85.6899 115.106 85.8894C115.305 86.0889 115.543 86.2468 115.804 86.3536C116.065 86.4605 116.345 86.5142 116.627 86.5118C116.909 86.5093 117.188 86.4507 117.447 86.3393C117.707 86.2279 117.941 86.066 118.137 85.8631L121.892 82.1057C122.291 81.7072 122.515 81.1668 122.515 80.6032C122.515 80.0397 122.291 79.4993 121.892 79.1007Z" fill="#FFCD1D"></path>
<g filter="url('#filter8_d')">
<path d="M125.556 96.6904H121.665C121.149 96.6904 120.654 96.8954 120.289 97.2603C119.924 97.6252 119.719 98.12 119.719 98.6361C119.719 99.1521 119.924 99.647 120.289 100.012C120.654 100.376 121.149 100.581 121.665 100.581H125.556C126.073 100.581 126.567 100.376 126.932 100.012C127.297 99.647 127.502 99.1521 127.502 98.6361C127.502 98.12 127.297 97.6252 126.932 97.2603C126.567 96.8954 126.073 96.6904 125.556 96.6904Z" fill="#FFCD1D" fill-opacity="0.01"></path>
</g>
<path d="M125.735 96.5107H121.485C120.921 96.5107 120.38 96.7346 119.982 97.1331C119.583 97.5317 119.359 98.0722 119.359 98.6359C119.359 99.1995 119.583 99.7401 119.982 100.139C120.38 100.537 120.921 100.761 121.485 100.761H125.735C126.299 100.761 126.839 100.537 127.238 100.139C127.636 99.7401 127.86 99.1995 127.86 98.6359C127.86 98.0722 127.636 97.5317 127.238 97.1331C126.839 96.7346 126.299 96.5107 125.735 96.5107Z" fill="#FFCD1D"></path>
<g filter="url('#filter9_d')">
<path d="M89.1945 82.8157L85.8722 79.4933C85.5177 79.1511 85.043 78.9616 84.5503 78.9659C84.0576 78.9701 83.5863 79.1678 83.2378 79.5162C82.8894 79.8646 82.6918 80.3359 82.6876 80.8286C82.6832 81.3213 82.8726 81.7961 83.215 82.1505L86.5374 85.4728C86.8918 85.8151 87.3664 86.0045 87.8591 86.0003C88.3519 85.996 88.8232 85.7983 89.1716 85.4499C89.52 85.1015 89.7176 84.6302 89.7219 84.1375C89.7262 83.6447 89.5368 83.1701 89.1945 82.8157Z" fill="#FFCD1D" fill-opacity="0.01"></path>
</g>
<path d="M89.5854 82.8588L85.8281 79.1015C85.4272 78.7144 84.8904 78.5001 84.3332 78.505C83.776 78.5098 83.243 78.7333 82.8489 79.1274C82.4549 79.5214 82.2314 80.0544 82.2266 80.6116C82.2217 81.1688 82.4359 81.7057 82.8231 82.1065L86.5804 85.8638C86.9812 86.2509 87.518 86.4651 88.0752 86.4603C88.6325 86.4555 89.1655 86.2319 89.5595 85.8379C89.9535 85.4439 90.177 84.9109 90.1819 84.3537C90.1867 83.7964 89.9725 83.2596 89.5854 82.8588Z" fill="#FFCD1D"></path>
<g filter="url('#filter10_d')">
<path d="M82.8037 96.9385H79.4085C78.9583 96.9385 78.5265 97.1173 78.2081 97.4356C77.8898 97.754 77.7109 98.1858 77.7109 98.6361C77.7109 99.0863 77.8898 99.5181 78.2081 99.8365C78.5265 100.154 78.9583 100.333 79.4085 100.333H82.8037C83.2539 100.333 83.6857 100.154 84.0041 99.8365C84.3224 99.5181 84.5013 99.0863 84.5013 98.6361C84.5013 98.1858 84.3224 97.754 84.0041 97.4356C83.6857 97.1173 83.2539 96.9385 82.8037 96.9385Z" fill="#FFCD1D" fill-opacity="0.01"></path>
</g>
<path d="M83.231 96.5107H78.9807C78.417 96.5107 77.8765 96.7346 77.4779 97.1331C77.0794 97.5317 76.8555 98.0722 76.8555 98.6359C76.8555 99.1995 77.0794 99.7401 77.4779 100.139C77.8765 100.537 78.417 100.761 78.9807 100.761H83.231C83.7947 100.761 84.3352 100.537 84.7338 100.139C85.1323 99.7401 85.3562 99.1995 85.3562 98.6359C85.3562 98.0722 85.1323 97.5317 84.7338 97.1331C84.3352 96.7346 83.7947 96.5107 83.231 96.5107Z" fill="#FFCD1D"></path>
<g filter="url('#filter11_d')">
<path d="M102.356 85.2715C99.7179 85.2754 97.1494 86.1201 95.0237 87.6829C92.8981 89.2457 91.3258 91.4452 90.5352 93.9622C89.7445 96.4793 89.7767 99.1829 90.627 101.68C91.4772 104.178 93.1013 106.34 95.2635 107.851C95.3903 107.939 95.4938 108.057 95.5653 108.193C95.6368 108.33 95.6741 108.482 95.674 108.636V110.091C95.674 110.597 95.8751 111.082 96.2332 111.441C96.5912 111.799 97.0769 112 97.5832 112H107.129C107.635 112 108.121 111.799 108.479 111.441C108.837 111.082 109.038 110.597 109.038 110.091V108.634C109.038 108.48 109.075 108.328 109.147 108.191C109.218 108.055 109.322 107.937 109.449 107.849C111.617 106.341 113.245 104.179 114.1 101.68C114.953 99.1813 114.987 96.4749 114.196 93.9553C113.404 91.4358 111.829 89.2347 109.7 87.6727C107.57 86.1108 104.997 85.2695 102.356 85.2715Z" fill="#FFCD1D" fill-opacity="0.01"></path>
</g>
<path d="M102.356 83.7598C99.419 83.7642 96.56 84.7044 94.1938 86.444C91.8277 88.1836 90.0775 90.632 89.1974 93.4338C88.3173 96.2357 88.3531 99.2451 89.2996 102.025C90.246 104.805 92.0539 107.212 94.4607 108.894C94.6018 108.992 94.717 109.123 94.7966 109.275C94.8762 109.427 94.9177 109.596 94.9176 109.768V111.387C94.9176 111.951 95.1415 112.491 95.5401 112.89C95.9386 113.289 96.4792 113.512 97.0428 113.512H107.669C108.232 113.512 108.773 113.289 109.171 112.89C109.57 112.491 109.794 111.951 109.794 111.387V109.766C109.794 109.594 109.835 109.425 109.915 109.273C109.994 109.121 110.11 108.99 110.251 108.892C112.664 107.213 114.477 104.807 115.428 102.025C116.378 99.2434 116.416 96.2307 115.535 93.4261C114.653 90.6215 112.9 88.1714 110.53 86.4327C108.159 84.6941 105.295 83.7576 102.356 83.7598Z" fill="#FFCD1D"></path>
</g>
<defs>
<filter id="filter0_d" x="109.229" y="13.4631" width="152.204" height="180.472" filterUnits="userSpaceOnUse" color-interpolation-filters="sRGB">
<feFlood flood-opacity="0" result="BackgroundImageFix"></feFlood>
<feColorMatrix in="SourceAlpha" type="matrix" values="0 0 0 0 0 0 0 0 0 0 0 0 0 0 0 0 0 0 127 0"></feColorMatrix>
<feOffset dy="4.6989"></feOffset>
<feGaussianBlur stdDeviation="9.46749"></feGaussianBlur>
<feColorMatrix type="matrix" values="0 0 0 0 1 0 0 0 0 0.587917 0 0 0 0 0.104167 0 0 0 0.5 0"></feColorMatrix>
<feBlend mode="normal" in2="BackgroundImageFix" result="effect1_dropShadow"></feBlend>
<feBlend mode="normal" in="SourceGraphic" in2="effect1_dropShadow" result="shape"></feBlend>
</filter>
<filter id="filter1_d" x="133.727" y="40.3047" width="25.772" height="25.7722" filterUnits="userSpaceOnUse" color-interpolation-filters="sRGB">
<feFlood flood-opacity="0" result="BackgroundImageFix"></feFlood>
<feColorMatrix in="SourceAlpha" type="matrix" values="0 0 0 0 0 0 0 0 0 0 0 0 0 0 0 0 0 0 127 0"></feColorMatrix>
<feOffset dy="3"></feOffset>
<feGaussianBlur stdDeviation="2.5"></feGaussianBlur>
<feColorMatrix type="matrix" values="0 0 0 0 1 0 0 0 0 0.80475 0 0 0 0 0.1125 0 0 0 0.29 0"></feColorMatrix>
<feBlend mode="normal" in2="BackgroundImageFix" result="effect1_dropShadow"></feBlend>
<feBlend mode="normal" in="SourceGraphic" in2="effect1_dropShadow" result="shape"></feBlend>
</filter>
<filter id="filter2_d" x="133.727" y="65.4072" width="25.772" height="25.7721" filterUnits="userSpaceOnUse" color-interpolation-filters="sRGB">
<feFlood flood-opacity="0" result="BackgroundImageFix"></feFlood>
<feColorMatrix in="SourceAlpha" type="matrix" values="0 0 0 0 0 0 0 0 0 0 0 0 0 0 0 0 0 0 127 0"></feColorMatrix>
<feOffset dy="3"></feOffset>
<feGaussianBlur stdDeviation="2.5"></feGaussianBlur>
<feColorMatrix type="matrix" values="0 0 0 0 1 0 0 0 0 0.80475 0 0 0 0 0.1125 0 0 0 0.29 0"></feColorMatrix>
<feBlend mode="normal" in2="BackgroundImageFix" result="effect1_dropShadow"></feBlend>
<feBlend mode="normal" in="SourceGraphic" in2="effect1_dropShadow" result="shape"></feBlend>
</filter>
<filter id="filter3_d" x="135.022" y="90.5876" width="23.1807" height="23.1804" filterUnits="userSpaceOnUse" color-interpolation-filters="sRGB">
<feFlood flood-opacity="0" result="BackgroundImageFix"></feFlood>
<feColorMatrix in="SourceAlpha" type="matrix" values="0 0 0 0 0 0 0 0 0 0 0 0 0 0 0 0 0 0 127 0"></feColorMatrix>
<feOffset dy="2.77822"></feOffset>
<feGaussianBlur stdDeviation="1.85215"></feGaussianBlur>
<feColorMatrix type="matrix" values="0 0 0 0 1 0 0 0 0 0.80475 0 0 0 0 0.1125 0 0 0 0.29 0"></feColorMatrix>
<feBlend mode="normal" in2="BackgroundImageFix" result="effect1_dropShadow"></feBlend>
<feBlend mode="normal" in="SourceGraphic" in2="effect1_dropShadow" result="shape"></feBlend>
</filter>
<filter id="filter4_d" x="42.1853" y="42.1967" width="120.343" height="119.678" filterUnits="userSpaceOnUse" color-interpolation-filters="sRGB">
<feFlood flood-opacity="0" result="BackgroundImageFix"></feFlood>
<feColorMatrix in="SourceAlpha" type="matrix" values="0 0 0 0 0 0 0 0 0 0 0 0 0 0 0 0 0 0 127 0"></feColorMatrix>
<feOffset dy="3.98212"></feOffset>
<feGaussianBlur stdDeviation="11.9464"></feGaussianBlur>
<feColorMatrix type="matrix" values="0 0 0 0 1 0 0 0 0 0.80475 0 0 0 0 0.1125 0 0 0 0.4 0"></feColorMatrix>
<feBlend mode="normal" in2="BackgroundImageFix" result="effect1_dropShadow"></feBlend>
<feBlend mode="normal" in="SourceGraphic" in2="effect1_dropShadow" result="shape"></feBlend>
</filter>
<filter id="filter5_d" x="40.2148" y="62.1768" width="124.284" height="120.359" filterUnits="userSpaceOnUse" color-interpolation-filters="sRGB">
<feFlood flood-opacity="0" result="BackgroundImageFix"></feFlood>
<feColorMatrix in="SourceAlpha" type="matrix" values="0 0 0 0 0 0 0 0 0 0 0 0 0 0 0 0 0 0 127 0"></feColorMatrix>
<feOffset dy="3"></feOffset>
<feGaussianBlur stdDeviation="29"></feGaussianBlur>
<feColorMatrix type="matrix" values="0 0 0 0 1 0 0 0 0 0.80475 0 0 0 0 0.1125 0 0 0 0.25 0"></feColorMatrix>
<feBlend mode="normal" in2="BackgroundImageFix" result="effect1_dropShadow"></feBlend>
<feBlend mode="normal" in="SourceGraphic" in2="effect1_dropShadow" result="shape"></feBlend>
</filter>
<filter id="filter6_d" x="95.4844" y="68.5811" width="13.742" height="18.4191" filterUnits="userSpaceOnUse" color-interpolation-filters="sRGB">
<feFlood flood-opacity="0" result="BackgroundImageFix"></feFlood>
<feColorMatrix in="SourceAlpha" type="matrix" values="0 0 0 0 0 0 0 0 0 0 0 0 0 0 0 0 0 0 127 0"></feColorMatrix>
<feOffset dy="2"></feOffset>
<feGaussianBlur stdDeviation="2.5"></feGaussianBlur>
<feColorMatrix type="matrix" values="0 0 0 0 1 0 0 0 0 0.80475 0 0 0 0 0.1125 0 0 0 0.2 0"></feColorMatrix>
<feBlend mode="normal" in2="BackgroundImageFix" result="effect1_dropShadow"></feBlend>
<feBlend mode="normal" in="SourceGraphic" in2="effect1_dropShadow" result="shape"></feBlend>
</filter>
<filter id="filter7_d" x="109.996" y="75.9912" width="17.0066" height="17.0086" filterUnits="userSpaceOnUse" color-interpolation-filters="sRGB">
<feFlood flood-opacity="0" result="BackgroundImageFix"></feFlood>
<feColorMatrix in="SourceAlpha" type="matrix" values="0 0 0 0 0 0 0 0 0 0 0 0 0 0 0 0 0 0 127 0"></feColorMatrix>
<feOffset dy="2"></feOffset>
<feGaussianBlur stdDeviation="2.5"></feGaussianBlur>
<feColorMatrix type="matrix" values="0 0 0 0 1 0 0 0 0 0.80475 0 0 0 0 0.1125 0 0 0 0.2 0"></feColorMatrix>
<feBlend mode="normal" in2="BackgroundImageFix" result="effect1_dropShadow"></feBlend>
<feBlend mode="normal" in="SourceGraphic" in2="effect1_dropShadow" result="shape"></feBlend>
</filter>
<filter id="filter8_d" x="114.719" y="93.6904" width="17.7829" height="13.891" filterUnits="userSpaceOnUse" color-interpolation-filters="sRGB">
<feFlood flood-opacity="0" result="BackgroundImageFix"></feFlood>
<feColorMatrix in="SourceAlpha" type="matrix" values="0 0 0 0 0 0 0 0 0 0 0 0 0 0 0 0 0 0 127 0"></feColorMatrix>
<feOffset dy="2"></feOffset>
<feGaussianBlur stdDeviation="2.5"></feGaussianBlur>
<feColorMatrix type="matrix" values="0 0 0 0 1 0 0 0 0 0.80475 0 0 0 0 0.1125 0 0 0 0.2 0"></feColorMatrix>
<feBlend mode="normal" in2="BackgroundImageFix" result="effect1_dropShadow"></feBlend>
<feBlend mode="normal" in="SourceGraphic" in2="effect1_dropShadow" result="shape"></feBlend>
</filter>
<filter id="filter9_d" x="78.6875" y="76.9658" width="15.0345" height="15.0345" filterUnits="userSpaceOnUse" color-interpolation-filters="sRGB">
<feFlood flood-opacity="0" result="BackgroundImageFix"></feFlood>
<feColorMatrix in="SourceAlpha" type="matrix" values="0 0 0 0 0 0 0 0 0 0 0 0 0 0 0 0 0 0 127 0"></feColorMatrix>
<feOffset dy="2"></feOffset>
<feGaussianBlur stdDeviation="2"></feGaussianBlur>
<feColorMatrix type="matrix" values="0 0 0 0 1 0 0 0 0 0.80475 0 0 0 0 0.1125 0 0 0 0.2 0"></feColorMatrix>
<feBlend mode="normal" in2="BackgroundImageFix" result="effect1_dropShadow"></feBlend>
<feBlend mode="normal" in="SourceGraphic" in2="effect1_dropShadow" result="shape"></feBlend>
</filter>
<filter id="filter10_d" x="73.7109" y="94.9385" width="14.7903" height="11.3949" filterUnits="userSpaceOnUse" color-interpolation-filters="sRGB">
<feFlood flood-opacity="0" result="BackgroundImageFix"></feFlood>
<feColorMatrix in="SourceAlpha" type="matrix" values="0 0 0 0 0 0 0 0 0 0 0 0 0 0 0 0 0 0 127 0"></feColorMatrix>
<feOffset dy="2"></feOffset>
<feGaussianBlur stdDeviation="2"></feGaussianBlur>
<feColorMatrix type="matrix" values="0 0 0 0 1 0 0 0 0 0.80475 0 0 0 0 0.1125 0 0 0 0.2 0"></feColorMatrix>
<feBlend mode="normal" in2="BackgroundImageFix" result="effect1_dropShadow"></feBlend>
<feBlend mode="normal" in="SourceGraphic" in2="effect1_dropShadow" result="shape"></feBlend>
</filter>
<filter id="filter11_d" x="86.9648" y="83.267" width="30.8008" height="32.7281" filterUnits="userSpaceOnUse" color-interpolation-filters="sRGB">
<feFlood flood-opacity="0" result="BackgroundImageFix"></feFlood>
<feColorMatrix in="SourceAlpha" type="matrix" values="0 0 0 0 0 0 0 0 0 0 0 0 0 0 0 0 0 0 127 0"></feColorMatrix>
<feOffset dy="0.99553"></feOffset>
<feGaussianBlur stdDeviation="1.5"></feGaussianBlur>
<feColorMatrix type="matrix" values="0 0 0 0 1 0 0 0 0 0.80475 0 0 0 0 0.1125 0 0 0 0.2 0"></feColorMatrix>
<feBlend mode="normal" in2="BackgroundImageFix" result="effect1_dropShadow"></feBlend>
<feBlend mode="normal" in="SourceGraphic" in2="effect1_dropShadow" result="shape"></feBlend>
</filter>
<clipPath id="clip0">
<rect width="309" height="198" fill="white" transform="translate(0.5)"></rect>
</clipPath>
</defs>
</svg>
