<?xml version="1.0" encoding="utf-8"?>
<!-- Generator: Adobe Illustrator 26.0.1, SVG Export Plug-In . SVG Version: 6.00 Build 0)  -->
<svg version="1.1" id="Layer_1" xmlns="http://www.w3.org/2000/svg" xmlns:xlink="http://www.w3.org/1999/xlink" x="0px" y="0px" viewBox="0 0 282 120" style="enable-background: new 0 0 282 120" xml:space="preserve">
<style>.st0 {
  fill: #552668;
}

.st1 {
  fill: #5aba48;
}

.st2 {
  fill: #6b7db2;
}

.st3 {
  fill: #d25657;
}

</style>
<g>
	<path class="st0" d="M46.15,75.77H33.81v-1.7c0.39-0.03,0.79-0.07,1.2-0.1c0.4-0.03,0.76-0.1,1.07-0.21
		c0.48-0.15,0.84-0.42,1.07-0.81c0.23-0.39,0.35-0.89,0.35-1.5V58.36c0-1.78-0.41-3.16-1.22-4.13c-0.81-0.97-1.83-1.45-3.05-1.45
		c-0.84,0-1.63,0.13-2.37,0.39c-0.74,0.26-1.41,0.62-2.03,1.08c-0.5,0.38-0.91,0.78-1.25,1.22c-0.33,0.44-0.59,0.8-0.76,1.09v14.63
		c0,0.6,0.1,1.09,0.31,1.48c0.21,0.39,0.56,0.68,1.05,0.89c0.39,0.15,0.75,0.27,1.07,0.35c0.32,0.08,0.73,0.13,1.25,0.17v1.7H18.41
		v-1.7c0.39-0.03,0.78-0.07,1.14-0.1c0.37-0.03,0.71-0.1,1.02-0.21c0.48-0.15,0.84-0.42,1.07-0.81c0.23-0.39,0.35-0.89,0.35-1.5
		V58.36c0-1.78-0.41-3.16-1.22-4.13c-0.82-0.97-1.83-1.45-3.05-1.45c-0.84,0-1.63,0.13-2.37,0.4c-0.74,0.27-1.42,0.63-2.04,1.09
		c-0.5,0.38-0.92,0.8-1.26,1.27c-0.34,0.47-0.6,0.83-0.77,1.07v14.53c0,0.58,0.12,1.07,0.36,1.47c0.24,0.39,0.6,0.69,1.08,0.9
		c0.36,0.17,0.73,0.3,1.11,0.39c0.38,0.09,0.8,0.15,1.26,0.18v1.7H2.75v-1.7c0.39-0.03,0.8-0.07,1.22-0.1
		c0.42-0.03,0.78-0.1,1.09-0.21c0.48-0.15,0.84-0.42,1.07-0.81c0.23-0.39,0.35-0.89,0.35-1.5V55.71c0-0.55-0.12-1.04-0.37-1.48
		c-0.25-0.44-0.6-0.81-1.04-1.12c-0.33-0.21-0.73-0.37-1.21-0.5c-0.48-0.13-0.98-0.21-1.49-0.24v-1.7l8.48-0.57l0.36,0.36v3.63h0.18
		c0.43-0.43,0.95-0.93,1.57-1.52c0.62-0.58,1.19-1.05,1.72-1.41c0.6-0.41,1.35-0.75,2.25-1.03c0.9-0.27,1.87-0.41,2.92-0.41
		c1.65,0,3.06,0.44,4.24,1.32c1.18,0.88,2.03,1.95,2.55,3.2c0.62-0.6,1.16-1.13,1.63-1.58c0.47-0.45,1.09-0.94,1.86-1.45
		c0.65-0.44,1.42-0.81,2.3-1.08c0.88-0.27,1.86-0.41,2.94-0.41c2.14,0,3.83,0.7,5.08,2.11c1.25,1.41,1.87,3.57,1.87,6.48v12.88
		c0,0.6,0.1,1.09,0.31,1.48c0.21,0.39,0.56,0.68,1.05,0.89c0.39,0.15,0.78,0.27,1.17,0.35c0.39,0.08,0.82,0.13,1.3,0.17V75.77z"></path>
	<path class="st0" d="M69.58,69.8c-1.06,2.02-2.49,3.63-4.27,4.83c-1.78,1.2-3.83,1.8-6.14,1.8c-2.04,0-3.83-0.36-5.36-1.08
		c-1.53-0.72-2.8-1.7-3.79-2.93c-0.99-1.23-1.74-2.67-2.22-4.32c-0.49-1.65-0.73-3.38-0.73-5.22c0-1.65,0.26-3.26,0.78-4.85
		c0.52-1.58,1.29-3.01,2.3-4.28c0.98-1.22,2.19-2.2,3.64-2.94c1.45-0.75,3.07-1.12,4.87-1.12c1.85,0,3.44,0.29,4.76,0.87
		c1.32,0.58,2.39,1.38,3.21,2.39c0.79,0.96,1.38,2.09,1.76,3.39c0.39,1.3,0.58,2.72,0.58,4.24v1.7H52.17c0,1.67,0.16,3.18,0.48,4.54
		c0.32,1.36,0.82,2.55,1.5,3.58c0.67,1,1.54,1.78,2.62,2.36c1.08,0.58,2.37,0.86,3.86,0.86c1.53,0,2.84-0.36,3.95-1.07
		c1.11-0.72,2.17-2,3.2-3.86L69.58,69.8z M63.89,60.13c0-0.96-0.08-1.98-0.24-3.08c-0.16-1.09-0.42-2.01-0.78-2.74
		c-0.39-0.79-0.93-1.43-1.62-1.92c-0.69-0.5-1.57-0.74-2.65-0.74c-1.8,0-3.3,0.75-4.49,2.24c-1.19,1.5-1.84,3.58-1.94,6.24H63.89z"></path>
	<path class="st0" d="M88.16,74.66C87.05,75.12,86,75.51,85,75.83c-0.99,0.32-2.21,0.48-3.65,0.48c-2.13,0-3.62-0.54-4.49-1.61
		c-0.87-1.07-1.3-2.58-1.3-4.54V52.99h-4.58v-2.47h4.68v-7.89h4.68v7.89h7.28v2.47H80.4v14.17c0,1.06,0.04,1.95,0.12,2.66
		c0.08,0.71,0.26,1.33,0.55,1.86c0.27,0.5,0.69,0.87,1.23,1.13c0.55,0.26,1.29,0.39,2.21,0.39c0.43,0,1.06-0.04,1.89-0.12
		c0.83-0.08,1.42-0.18,1.76-0.3V74.66z"></path>
	<path class="st0" d="M104.03,75.77H91.79v-1.7c0.39-0.03,0.8-0.07,1.22-0.1c0.42-0.03,0.78-0.1,1.09-0.21
		c0.48-0.15,0.84-0.42,1.07-0.81c0.23-0.39,0.35-0.89,0.35-1.5V55.81c0-0.55-0.12-1.05-0.37-1.5s-0.6-0.83-1.04-1.14
		c-0.33-0.21-0.8-0.38-1.41-0.53c-0.62-0.15-1.18-0.24-1.7-0.27v-1.7l8.95-0.57l0.36,0.36v20.67c0,0.6,0.11,1.1,0.34,1.49
		c0.23,0.39,0.59,0.68,1.09,0.87c0.37,0.15,0.74,0.28,1.1,0.37c0.36,0.09,0.76,0.16,1.2,0.19V75.77z"></path>
	<path class="st0" d="M117.47,76.43c-3.67,0-6.54-1.22-8.61-3.65c-2.07-2.43-3.11-5.7-3.11-9.8c0-1.78,0.28-3.45,0.84-5
		c0.56-1.55,1.37-2.96,2.43-4.23c1.01-1.22,2.28-2.2,3.81-2.94c1.53-0.75,3.19-1.12,4.99-1.12c2.48,0,4.51,0.6,6.07,1.79
		c1.56,1.19,2.34,2.82,2.34,4.87c0,0.86-0.21,1.61-0.62,2.27c-0.41,0.66-1.09,0.99-2.03,0.99c-1.01,0-1.8-0.26-2.35-0.77
		c-0.56-0.51-0.84-1.09-0.84-1.72c0-0.77,0.1-1.56,0.31-2.37c0.21-0.81,0.33-1.41,0.36-1.78c-0.31-0.53-0.77-0.88-1.37-1.06
		c-0.61-0.18-1.26-0.27-1.96-0.27c-0.82,0-1.6,0.18-2.35,0.53c-0.74,0.35-1.47,1-2.17,1.94c-0.63,0.86-1.15,2.01-1.54,3.47
		c-0.39,1.46-0.59,3.2-0.59,5.22c0,3.19,0.71,5.79,2.12,7.8c1.41,2.01,3.26,3.02,5.56,3.02c1.66,0,3.05-0.41,4.17-1.21
		c1.12-0.81,2.16-2.02,3.12-3.64l1.64,1.08c-1.13,2.02-2.62,3.62-4.47,4.81C121.35,75.84,119.44,76.43,117.47,76.43z"></path>
	<path class="st0" d="M156.83,75.3l-8.28,0.57l-0.39-0.36v-3.21h-0.15c-0.41,0.43-0.87,0.89-1.39,1.38
		c-0.51,0.49-1.1,0.93-1.77,1.32c-0.77,0.46-1.51,0.81-2.23,1.05c-0.72,0.24-1.74,0.36-3.05,0.36c-2.24,0-3.95-0.73-5.12-2.2
		c-1.17-1.46-1.76-3.59-1.76-6.38V55.71c0-0.62-0.12-1.13-0.35-1.55c-0.23-0.42-0.57-0.78-1.02-1.09c-0.31-0.21-0.7-0.36-1.16-0.45
		c-0.47-0.09-0.96-0.16-1.47-0.19v-1.7l8.46-0.62l0.39,0.36v17.61c0,1.83,0.41,3.21,1.23,4.14c0.82,0.93,1.81,1.39,2.96,1.39
		c0.94,0,1.78-0.15,2.52-0.44c0.74-0.29,1.35-0.63,1.85-1.03c0.46-0.36,0.87-0.74,1.22-1.14c0.35-0.4,0.62-0.77,0.81-1.12V55.53
		c0-0.56-0.12-1.07-0.36-1.5c-0.24-0.44-0.57-0.81-1-1.12c-0.31-0.21-0.77-0.33-1.38-0.37c-0.61-0.04-1.29-0.08-2.04-0.12v-1.7
		l9.23-0.62l0.39,0.36v20.11c0,0.58,0.12,1.08,0.36,1.49c0.24,0.41,0.57,0.76,1,1.05c0.31,0.19,0.68,0.31,1.11,0.37
		c0.43,0.06,0.9,0.1,1.41,0.12V75.3z"></path>
	<path class="st0" d="M170.76,75.77H158.4v-1.7c0.39-0.03,0.81-0.07,1.26-0.12c0.45-0.04,0.81-0.11,1.11-0.19
		c0.48-0.15,0.84-0.42,1.08-0.81c0.24-0.39,0.36-0.89,0.36-1.51V42.06c0-0.62-0.13-1.2-0.4-1.74c-0.27-0.54-0.61-0.96-1.04-1.27
		c-0.31-0.21-0.87-0.39-1.7-0.57c-0.82-0.17-1.48-0.27-1.98-0.31v-1.65l9.54-0.57l0.36,0.39v34.79c0,0.6,0.11,1.09,0.33,1.48
		c0.22,0.39,0.58,0.68,1.08,0.89c0.38,0.17,0.75,0.3,1.12,0.39c0.37,0.09,0.78,0.15,1.25,0.18V75.77z"></path>
	<path class="st0" d="M196.79,62.83c0,1.78-0.28,3.53-0.85,5.26c-0.57,1.72-1.37,3.18-2.42,4.38c-1.18,1.37-2.56,2.39-4.12,3.06
		c-1.56,0.67-3.31,1-5.25,1c-1.61,0-3.15-0.3-4.61-0.91s-2.75-1.5-3.89-2.66c-1.12-1.15-2-2.55-2.66-4.2
		c-0.66-1.65-0.99-3.51-0.99-5.57c0-3.96,1.15-7.2,3.46-9.72c2.31-2.52,5.33-3.78,9.07-3.78c3.55,0,6.48,1.2,8.79,3.59
		C195.64,55.67,196.79,58.86,196.79,62.83z M191.47,62.89c0-1.29-0.13-2.64-0.39-4.08c-0.26-1.43-0.64-2.64-1.16-3.64
		c-0.55-1.06-1.27-1.92-2.16-2.56c-0.89-0.64-1.98-0.96-3.27-0.96c-1.32,0-2.45,0.33-3.39,0.98c-0.94,0.65-1.7,1.54-2.28,2.67
		c-0.55,1.05-0.94,2.24-1.16,3.57c-0.22,1.34-0.33,2.63-0.33,3.88c0,1.65,0.13,3.17,0.4,4.56c0.27,1.4,0.69,2.64,1.27,3.74
		c0.58,1.1,1.32,1.96,2.2,2.58c0.88,0.63,1.98,0.94,3.28,0.94c2.15,0,3.85-1.04,5.1-3.11C190.84,69.4,191.47,66.54,191.47,62.89z"></path>
	<path class="st0" d="M216.13,63.35c0.7,0.62,1.24,1.33,1.62,2.13c0.38,0.81,0.57,1.79,0.57,2.96c0,2.35-0.88,4.27-2.64,5.76
		c-1.76,1.49-4.03,2.24-6.83,2.24c-1.47,0-2.83-0.27-4.08-0.8c-1.24-0.53-2.13-1.02-2.66-1.47l-0.51,1.67h-1.93l-0.26-8.82h1.77
		c0.14,0.67,0.43,1.45,0.87,2.35c0.44,0.89,0.99,1.7,1.62,2.43c0.67,0.76,1.47,1.39,2.4,1.91c0.93,0.52,1.98,0.77,3.15,0.77
		c1.65,0,2.91-0.38,3.81-1.12c0.89-0.75,1.34-1.82,1.34-3.22c0-0.72-0.14-1.34-0.42-1.86c-0.28-0.52-0.7-0.98-1.25-1.38
		c-0.57-0.39-1.26-0.75-2.08-1.07c-0.82-0.32-1.74-0.63-2.75-0.94c-0.81-0.24-1.7-0.57-2.69-0.99c-0.99-0.42-1.83-0.91-2.53-1.48
		c-0.75-0.6-1.37-1.34-1.85-2.21c-0.48-0.87-0.72-1.9-0.72-3.09c0-2.07,0.77-3.83,2.31-5.27c1.54-1.44,3.61-2.16,6.2-2.16
		c0.99,0,2.01,0.13,3.05,0.39c1.04,0.26,1.88,0.57,2.53,0.93l0.59-1.34h1.85l0.39,8.15h-1.77c-0.36-1.82-1.14-3.31-2.33-4.45
		c-1.19-1.14-2.64-1.72-4.36-1.72c-1.41,0-2.51,0.35-3.32,1.06c-0.81,0.71-1.21,1.56-1.21,2.56c0,0.77,0.13,1.41,0.4,1.93
		c0.27,0.51,0.66,0.95,1.2,1.31c0.51,0.34,1.16,0.66,1.94,0.96c0.78,0.3,1.74,0.64,2.89,1.02c1.13,0.36,2.2,0.78,3.2,1.26
		C214.65,62.23,215.47,62.77,216.13,63.35z"></path>
	<path class="st0" d="M233.54,75.77H221.3v-1.7c0.39-0.03,0.8-0.07,1.22-0.1c0.42-0.03,0.78-0.1,1.09-0.21
		c0.48-0.15,0.84-0.42,1.07-0.81c0.23-0.39,0.35-0.89,0.35-1.5V55.81c0-0.55-0.12-1.05-0.37-1.5c-0.25-0.45-0.6-0.83-1.04-1.14
		c-0.33-0.21-0.8-0.38-1.41-0.53c-0.62-0.15-1.18-0.24-1.7-0.27v-1.7l8.95-0.57l0.36,0.36v20.67c0,0.6,0.11,1.1,0.34,1.49
		c0.23,0.39,0.59,0.68,1.09,0.87c0.37,0.15,0.74,0.28,1.1,0.37c0.36,0.09,0.76,0.16,1.2,0.19V75.77z M230.32,40.11
		c0,0.98-0.32,1.83-0.96,2.56c-0.64,0.73-1.44,1.09-2.38,1.09c-0.87,0-1.63-0.35-2.28-1.04c-0.64-0.69-0.96-1.49-0.96-2.38
		c0-0.94,0.32-1.77,0.96-2.47c0.64-0.7,1.4-1.05,2.28-1.05c0.98,0,1.78,0.33,2.4,0.99C230.01,38.46,230.32,39.23,230.32,40.11z"></path>
	<path class="st0" d="M252.33,74.66c-1.11,0.46-2.17,0.85-3.16,1.17c-0.99,0.32-2.21,0.48-3.65,0.48c-2.13,0-3.62-0.54-4.49-1.61
		c-0.87-1.07-1.3-2.58-1.3-4.54V52.99h-4.58v-2.47h4.68v-7.89h4.68v7.89h7.28v2.47h-7.22v14.17c0,1.06,0.04,1.95,0.12,2.66
		c0.08,0.71,0.26,1.33,0.55,1.86c0.27,0.5,0.68,0.87,1.23,1.13c0.55,0.26,1.29,0.39,2.21,0.39c0.43,0,1.06-0.04,1.89-0.12
		c0.83-0.08,1.42-0.18,1.76-0.3V74.66z"></path>
	<path class="st0" d="M253.97,84.04c0-0.86,0.23-1.55,0.71-2.09c0.47-0.54,1.06-0.81,1.76-0.81c0.55,0,1.02,0.1,1.41,0.31
		c0.39,0.2,0.75,0.47,1.05,0.79c0.26,0.26,0.53,0.6,0.82,1.05c0.29,0.44,0.52,0.81,0.69,1.1c0.86-0.46,1.88-1.67,3.07-3.62
		c1.19-1.95,2.05-3.66,2.58-5.13c-1.63-4.06-3.1-7.69-4.42-10.9c-1.32-3.2-2.7-6.52-4.14-9.95c-0.33-0.79-0.87-1.4-1.65-1.84
		c-0.77-0.44-1.54-0.71-2.31-0.84v-1.7h11.57v1.8c-0.51,0.02-1.13,0.12-1.85,0.32c-0.72,0.2-1.08,0.42-1.08,0.68
		c0,0.1,0.04,0.27,0.12,0.51c0.08,0.24,0.17,0.49,0.27,0.74c0.65,1.7,1.64,4.14,2.97,7.33c1.33,3.19,2.37,5.75,3.1,7.67
		c0.77-1.83,1.57-3.73,2.41-5.69c0.83-1.96,1.76-4.28,2.79-6.95c0.12-0.32,0.29-0.77,0.51-1.35c0.22-0.57,0.33-1.07,0.33-1.48
		c0-0.44-0.39-0.86-1.17-1.25c-0.78-0.39-1.52-0.62-2.22-0.71v-1.64h9.41v1.59c-0.51,0.09-1.19,0.38-2.03,0.89
		c-0.84,0.51-1.47,1.22-1.88,2.15c-2.04,4.73-3.85,9.04-5.44,12.93c-1.59,3.89-2.79,6.75-3.61,8.59c-1.08,2.4-2.04,4.27-2.89,5.62
		c-0.85,1.35-1.68,2.4-2.48,3.18c-0.79,0.72-1.5,1.2-2.15,1.45c-0.64,0.25-1.31,0.37-1.99,0.37c-1.34,0-2.39-0.32-3.15-0.95
		C254.36,85.6,253.97,84.87,253.97,84.04z"></path>
</g>
<path class="st1" d="M113.73,26.36C105.53,37.79,96,44.99,92.44,42.44c-3.56-2.55,0.19-13.89,8.39-25.32
	c8.19-11.43,17.73-18.63,21.29-16.08C125.68,3.58,121.92,14.92,113.73,26.36z"></path>
<path class="st2" d="M60.57,20.94c7.55,6.9,11.93,14.41,9.78,16.76c-2.15,2.35-10.02-1.34-17.57-8.24
	c-7.55-6.9-11.93-14.41-9.78-16.76C45.15,10.34,53.02,14.03,60.57,20.94z"></path>
<path class="st3" d="M87.15,102.19c-1.75,10.08-5.71,17.81-8.85,17.27c-3.14-0.54-4.27-9.16-2.52-19.24
	c1.75-10.08,5.72-17.81,8.86-17.27C87.78,83.49,88.9,92.11,87.15,102.19z"></path>
</svg>
