<svg width="62" height="62" viewBox="0 0 62 62" fill="none" xmlns="http://www.w3.org/2000/svg">
<rect width="62" height="62" fill="white"/>
<rect width="62" height="62" fill="url(#paint0_radial)"/>
<path d="M26.1086 31.0001C26.1086 28.2969 28.2994 26.105 31.0026 26.105C33.7058 26.105 35.8977 28.2969 35.8977 31.0001C35.8977 33.7033 33.7058 35.8953 31.0026 35.8953C28.2994 35.8953 26.1086 33.7033 26.1086 31.0001V31.0001ZM23.4624 31.0001C23.4624 35.1646 26.8381 38.5403 31.0026 38.5403C35.167 38.5403 38.5427 35.1646 38.5427 31.0001C38.5427 26.8357 35.167 23.46 31.0026 23.46C26.8381 23.46 23.4625 26.8355 23.4625 31.0001H23.4624ZM37.0793 23.161C37.0791 23.5095 37.1823 23.8502 37.3758 24.1401C37.5693 24.4299 37.8445 24.6559 38.1664 24.7894C38.4883 24.9229 38.8426 24.9579 39.1844 24.8901C39.5263 24.8222 39.8403 24.6545 40.0869 24.4082C40.3334 24.1619 40.5013 23.8479 40.5695 23.5062C40.6376 23.1644 40.6028 22.8101 40.4696 22.488C40.3364 22.166 40.1106 21.8907 39.8209 21.697C39.5312 21.5032 39.1906 21.3997 38.8421 21.3996H38.8414C38.3742 21.3998 37.9262 21.5854 37.5959 21.9157C37.2655 22.246 37.0797 22.6938 37.0793 23.161V23.161ZM25.0702 42.9528C23.6385 42.8876 22.8604 42.6492 22.3432 42.4477C21.6577 42.1808 21.1685 41.8629 20.6542 41.3493C20.1399 40.8357 19.8215 40.347 19.5558 39.6615C19.3542 39.1446 19.1158 38.3662 19.0507 36.9345C18.9795 35.3867 18.9653 34.9218 18.9653 31.0004C18.9653 27.079 18.9807 26.6153 19.0507 25.0662C19.1159 23.6345 19.3561 22.8577 19.5558 22.3393C19.8227 21.6537 20.1406 21.1645 20.6542 20.6502C21.1678 20.1359 21.6565 19.8176 22.3432 19.5518C22.8601 19.3503 23.6385 19.1118 25.0702 19.0467C26.618 18.9755 27.0829 18.9613 31.0026 18.9613C34.9222 18.9613 35.3876 18.9765 36.9368 19.0469C38.3684 19.1121 39.1453 19.3524 39.6637 19.5521C40.3493 19.8178 40.8384 20.1369 41.3527 20.6505C41.867 21.1641 42.1842 21.6539 42.4511 22.3395C42.6527 22.8564 42.8911 23.6348 42.9562 25.0664C43.0274 26.6155 43.0416 27.0792 43.0416 31.0006C43.0416 34.922 43.0274 35.3857 42.9562 36.9348C42.891 38.3664 42.6514 39.1446 42.4511 39.6617C42.1842 40.3473 41.8663 40.8364 41.3527 41.3496C40.8391 41.8627 40.3493 42.181 39.6637 42.4479C39.1468 42.6495 38.3684 42.888 36.9368 42.9531C35.3889 43.0243 34.924 43.0385 31.0026 43.0385C27.0812 43.0385 26.6175 43.0243 25.0702 42.9531V42.9528ZM24.9486 16.4048C23.3853 16.476 22.3172 16.7239 21.3843 17.0869C20.4188 17.4618 19.6003 17.9647 18.7831 18.7806C17.9658 19.5966 17.4642 20.4152 17.0893 21.3819C16.7263 22.3153 16.4785 23.3829 16.4073 24.9461C16.3349 26.5118 16.3184 27.0124 16.3184 31.0001C16.3184 34.9879 16.3349 35.4884 16.4073 37.0541C16.4785 38.6175 16.7263 39.685 17.0893 40.6184C17.4642 41.5839 17.9659 42.404 18.7831 43.2196C19.6002 44.0352 20.4176 44.5374 21.3843 44.9134C22.3189 45.2764 23.3853 45.5242 24.9486 45.5954C26.5151 45.6666 27.0148 45.6843 31.0026 45.6843C34.9903 45.6843 35.4909 45.6678 37.0566 45.5954C38.6199 45.5242 39.6874 45.2764 40.6209 44.9134C41.5864 44.5374 42.4048 44.0356 43.2221 43.2196C44.0393 42.4037 44.5399 41.5839 44.9158 40.6184C45.2788 39.685 45.5278 38.6174 45.5979 37.0541C45.669 35.4873 45.6856 34.9879 45.6856 31.0001C45.6856 27.0124 45.669 26.5118 45.5979 24.9461C45.5267 23.3828 45.2788 22.3147 44.9158 21.3819C44.5399 20.4163 44.038 19.5979 43.2221 18.7806C42.4061 17.9634 41.5864 17.4618 40.622 17.0869C39.6874 16.7239 38.6198 16.4749 37.0578 16.4048C35.4918 16.3333 34.9915 16.3159 31.0043 16.3159C27.0172 16.3159 26.5157 16.3325 24.9492 16.4048" fill="white"/>
<defs>
<radialGradient id="paint0_radial" cx="0" cy="0" r="1" gradientUnits="userSpaceOnUse" gradientTransform="translate(4.01258 60.6418) scale(78.717)">
<stop offset="0.09" stop-color="#FA8F21"/>
<stop offset="0.78" stop-color="#D82D7E"/>
</radialGradient>
</defs>
</svg>
