<svg width="62" height="62" viewBox="0 0 62 62" fill="none" xmlns="http://www.w3.org/2000/svg">
<rect width="62" height="62" fill="white"/>
<rect width="62" height="62" fill="#0A66C2"/>
<path d="M17.9434 21.6061C17.9434 20.782 18.2328 20.1022 18.8115 19.5666C19.3903 19.031 20.1427 18.7632 21.0687 18.7632C21.9782 18.7632 22.7141 19.0269 23.2763 19.5543C23.8551 20.0981 24.1445 20.8068 24.1445 21.6802C24.1445 22.4713 23.8634 23.1305 23.3011 23.6579C22.7224 24.2018 21.9617 24.4737 21.0191 24.4737H20.9943C20.0848 24.4737 19.349 24.2018 18.7867 23.6579C18.2245 23.1141 17.9434 22.4301 17.9434 21.6061ZM18.2658 43.2369V26.7233H23.7724V43.2369H18.2658ZM26.8233 43.2369H32.3299V34.016C32.3299 33.4391 32.3961 32.9942 32.5284 32.681C32.7599 32.1207 33.1113 31.6469 33.5825 31.2596C34.0538 30.8723 34.645 30.6787 35.3561 30.6787C37.2081 30.6787 38.1342 31.9229 38.1342 34.4115V43.2369H43.6407V33.7688C43.6407 31.3296 43.062 29.4797 41.9044 28.2189C40.7469 26.9582 39.2173 26.3278 37.3156 26.3278C35.1824 26.3278 33.5205 27.2425 32.3299 29.0718V29.1212H32.3051L32.3299 29.0718V26.7233H26.8233C26.8564 27.2507 26.8729 28.8905 26.8729 31.6428C26.8729 34.395 26.8564 38.2597 26.8233 43.2369Z" fill="white"/>
</svg>
