<svg width="62" height="62" viewBox="0 0 62 62" fill="none" xmlns="http://www.w3.org/2000/svg">
<rect width="62" height="62" fill="white"/>
<rect width="62" height="62" fill="#1DA1F2"/>
<path d="M34.2014 20.0098V20.0049H35.474L35.939 20.0982C36.249 20.1587 36.5305 20.2381 36.7834 20.3362C37.0363 20.4344 37.281 20.549 37.5176 20.6799C37.7542 20.8108 37.9687 20.9442 38.1613 21.08C38.3522 21.2141 38.5235 21.3565 38.6752 21.507C38.8253 21.6592 39.0594 21.6985 39.3776 21.6249C39.6957 21.5512 40.0384 21.4489 40.4055 21.318C40.7726 21.1871 41.1356 21.0399 41.4946 20.8762C41.8535 20.7126 42.0722 20.6087 42.1505 20.5645C42.2272 20.5187 42.268 20.4942 42.2729 20.4909L42.2777 20.4835L42.3022 20.4712L42.3267 20.459L42.3511 20.4467L42.3756 20.4344L42.3805 20.4271L42.3879 20.4221L42.3952 20.4172L42.4001 20.4099L42.4246 20.4025L42.449 20.3976L42.4442 20.4344L42.4368 20.4712L42.4246 20.5081L42.4123 20.5449L42.4001 20.5694L42.3879 20.594L42.3756 20.6308C42.3675 20.6553 42.3593 20.688 42.3511 20.729C42.343 20.7699 42.2655 20.9335 42.1186 21.2199C41.9718 21.5062 41.7882 21.7967 41.568 22.0912C41.3477 22.3858 41.1503 22.6083 40.9757 22.7588C40.7995 22.911 40.6829 23.0174 40.6257 23.0779C40.5687 23.1401 40.4993 23.1974 40.4177 23.2497L40.2954 23.3307L40.2709 23.343L40.2464 23.3553L40.2415 23.3627L40.2342 23.3676L40.2268 23.3725L40.2219 23.3798L40.1975 23.3921L40.173 23.4044L40.1681 23.4117L40.1607 23.4167L40.1534 23.4216L40.1485 23.4289L40.1436 23.4363L40.1363 23.4412L40.1289 23.4461L40.124 23.4535H40.2464L40.9317 23.3062C41.3885 23.208 41.825 23.0894 42.241 22.9503L42.9018 22.7294L42.9752 22.7048L43.0119 22.6926L43.0364 22.6803L43.0609 22.668L43.0854 22.6558L43.1098 22.6435L43.1588 22.6361L43.2077 22.6312V22.6803L43.1955 22.6852L43.1833 22.6926L43.1784 22.6999L43.171 22.7048L43.1637 22.7098L43.1588 22.7171L43.1539 22.7245L43.1465 22.7294L43.1392 22.7343L43.1343 22.7417L43.1294 22.749L43.1221 22.7539L43.1098 22.7785L43.0976 22.803L43.0902 22.8079C43.087 22.8128 42.9834 22.9519 42.7794 23.2252C42.5755 23.5001 42.4654 23.6392 42.449 23.6425C42.4327 23.6474 42.4099 23.6719 42.3805 23.7161C42.3528 23.7619 42.1798 23.9444 41.8617 24.2635C41.5435 24.5825 41.2319 24.8664 40.9268 25.1152C40.6201 25.3655 40.4651 25.6732 40.4618 26.0381C40.4569 26.4013 40.4381 26.8121 40.4055 27.2702C40.3729 27.7284 40.3117 28.2234 40.2219 28.7552C40.1322 29.287 39.9935 29.8884 39.8059 30.5593C39.6183 31.2302 39.3898 31.8847 39.1206 32.5229C38.8514 33.1611 38.57 33.7338 38.2763 34.241C37.9826 34.7483 37.7134 35.1779 37.4686 35.5297C37.2239 35.8815 36.9751 36.2128 36.7222 36.5237C36.4693 36.8347 36.1495 37.1848 35.7629 37.5743C35.3745 37.9621 35.1624 38.1748 35.1265 38.2124C35.089 38.2485 34.9291 38.3826 34.6468 38.615C34.3662 38.849 34.0644 39.083 33.7413 39.317C33.4199 39.5493 33.1246 39.7432 32.8554 39.8987C32.5861 40.0541 32.2615 40.2317 31.8813 40.4313C31.5028 40.6326 31.0932 40.8191 30.6527 40.991C30.2122 41.1628 29.7472 41.3223 29.2577 41.4696C28.7682 41.6169 28.2951 41.7314 27.8382 41.8132C27.3814 41.895 26.8634 41.9646 26.2842 42.0218L25.4154 42.1078V42.12H23.8246V42.1078L23.6165 42.0955C23.4779 42.0873 23.3637 42.0791 23.2739 42.0709C23.1842 42.0628 22.8456 42.0177 22.2582 41.9359C21.6709 41.8541 21.21 41.7723 20.8755 41.6905C20.541 41.6087 20.0434 41.4532 19.3826 41.2241C18.7218 40.995 18.1565 40.7635 17.6866 40.5295C17.2183 40.2971 16.9246 40.1499 16.8055 40.0877C16.688 40.0271 16.5559 39.9519 16.409 39.8619L16.1888 39.7269L16.1839 39.7195L16.1765 39.7146L16.1692 39.7097L16.1643 39.7023L16.1398 39.6901L16.1154 39.6778L16.1105 39.6704L16.1031 39.6655L16.0958 39.6606L16.0909 39.6532L16.086 39.6459L16.0786 39.641H16.0664V39.5919L16.0909 39.5968L16.1154 39.6042L16.2255 39.6164C16.2989 39.6246 16.4988 39.6369 16.8251 39.6532C17.1514 39.6696 17.4981 39.6696 17.8652 39.6532C18.2323 39.6369 18.6076 39.6001 18.991 39.5428C19.3744 39.4855 19.8272 39.3873 20.3493 39.2482C20.8714 39.1092 21.3511 38.9439 21.7884 38.7524C22.224 38.5594 22.534 38.4154 22.7184 38.3204C22.9011 38.2272 23.1801 38.0537 23.5554 37.8001L24.1182 37.4196L24.1231 37.4123L24.1305 37.4074L24.1379 37.4025L24.1427 37.3951L24.1476 37.3877L24.155 37.3828L24.1623 37.3779L24.1672 37.3705L24.1917 37.3632L24.2161 37.3583L24.221 37.3337L24.2284 37.3092L24.2357 37.3043L24.2406 37.2969L24.0448 37.2846C23.9143 37.2765 23.7879 37.2683 23.6655 37.2601C23.5431 37.2519 23.3514 37.2151 23.0904 37.1496C22.8293 37.0842 22.5479 36.986 22.246 36.8551C21.9442 36.7242 21.6505 36.5687 21.365 36.3887C21.0794 36.2088 20.873 36.059 20.7458 35.9396C20.6202 35.8217 20.457 35.6548 20.2563 35.4388C20.0573 35.2212 19.8843 34.9978 19.7375 34.7688C19.5906 34.5397 19.4503 34.2754 19.3165 33.976L19.1134 33.5292L19.1011 33.4924L19.0889 33.4556L19.0816 33.4311L19.0767 33.4065L19.1134 33.4114L19.1501 33.4188L19.4193 33.4556C19.5988 33.4801 19.8802 33.4883 20.2636 33.4801C20.6471 33.472 20.9122 33.4556 21.059 33.4311C21.2059 33.4065 21.2956 33.3901 21.3282 33.382L21.3772 33.3697L21.4384 33.3574L21.4996 33.3451L21.5045 33.3378L21.5118 33.3329L21.5192 33.328L21.524 33.3206L21.4751 33.3083L21.4261 33.2961L21.3772 33.2838L21.3282 33.2715L21.2793 33.2592C21.2467 33.2511 21.1896 33.2347 21.108 33.2102C21.0264 33.1856 20.8062 33.0956 20.4472 32.9402C20.0883 32.7847 19.8027 32.6333 19.5906 32.4861C19.378 32.3384 19.1752 32.1768 18.9837 32.0025C18.7928 31.8258 18.5831 31.5983 18.3547 31.3202C18.1263 31.042 17.9223 30.7188 17.7429 30.3506C17.5634 29.9825 17.4288 29.6307 17.339 29.2952C17.2497 28.9617 17.1907 28.6208 17.1629 28.2766L17.1188 27.7611L17.1432 27.766L17.1677 27.7734L17.1922 27.7857L17.2167 27.798L17.2411 27.8102L17.2656 27.8225L17.645 27.9943C17.8979 28.1089 18.2119 28.207 18.5872 28.2889C18.9625 28.3707 19.1868 28.4157 19.2602 28.4239L19.3704 28.4361H19.5906L19.5857 28.4288L19.5784 28.4239L19.571 28.4189L19.5661 28.4116L19.5613 28.4042L19.5539 28.3993L19.5466 28.3944L19.5417 28.387L19.5172 28.3748L19.4927 28.3625L19.4879 28.3551L19.4805 28.3502L19.4731 28.3453L19.4682 28.3379L19.4438 28.3257L19.4193 28.3134L19.4144 28.306C19.4095 28.3027 19.3394 28.2504 19.2039 28.1489C19.0701 28.0459 18.9298 27.9125 18.783 27.7489C18.6361 27.5852 18.4893 27.4134 18.3425 27.2334C18.1953 27.053 18.0643 26.86 17.9509 26.6566C17.8367 26.4521 17.7159 26.1919 17.5887 25.8761C17.463 25.5619 17.3676 25.2453 17.3023 24.9262C17.2371 24.6071 17.2004 24.2921 17.1922 23.9812C17.184 23.6703 17.1922 23.4044 17.2167 23.1835C17.2411 22.9626 17.2901 22.713 17.3635 22.4348C17.4369 22.1567 17.543 21.8621 17.6817 21.5512L17.8897 21.0849L17.9019 21.048L17.9142 21.0112L17.9215 21.0063L17.9264 20.999L17.9313 20.9916L17.9386 20.9867L17.946 20.9916L17.9509 20.999L17.9558 21.0063L17.9631 21.0112L17.9705 21.0161L17.9754 21.0235L17.9802 21.0309L17.9876 21.0358L17.9998 21.0603L18.0121 21.0849L18.0194 21.0898L18.0243 21.0971L18.3547 21.4653C18.575 21.7108 18.836 21.9849 19.1379 22.2876C19.4397 22.5903 19.6069 22.7474 19.6396 22.7588C19.6722 22.7719 19.713 22.8096 19.7619 22.8718C19.8109 22.9323 19.974 23.0771 20.2514 23.3062C20.5288 23.5353 20.8918 23.8012 21.3405 24.1039C21.7892 24.4066 22.2868 24.7053 22.8334 24.9998C23.38 25.2944 23.9673 25.5603 24.5955 25.7975C25.2237 26.0348 25.6642 26.1903 25.9171 26.2639C26.17 26.3375 26.6023 26.4316 27.2142 26.5462C27.826 26.6607 28.2869 26.7343 28.5969 26.7671C28.9069 26.7998 29.1191 26.8186 29.2332 26.8235L29.4046 26.8284L29.3997 26.7916L29.3923 26.7548L29.3434 26.448C29.3108 26.2434 29.2944 25.9571 29.2944 25.5889C29.2944 25.2207 29.323 24.8812 29.3801 24.5703C29.4372 24.2594 29.5229 23.9444 29.6371 23.6253C29.7513 23.3062 29.8631 23.0501 29.9724 22.857C30.0833 22.6656 30.2285 22.4471 30.408 22.2017C30.5875 21.9562 30.82 21.7026 31.1055 21.4408C31.391 21.1789 31.7173 20.9458 32.0844 20.7412C32.4515 20.5367 32.7901 20.3812 33.1001 20.2749C33.4101 20.1685 33.6712 20.099 33.8832 20.0662C34.0954 20.0335 34.2014 20.0147 34.2014 20.0098V20.0098Z" fill="white"/>
</svg>
